<?xml version="1.0" encoding="UTF-8" standalone="no"?>
<!-- Created with Inkscape (http://www.inkscape.org/) -->

<svg
   version="1.1"
   id="svg828"
   width="1000.1"
   height="971.09998"
   viewBox="0 0 1000.1 971.09998"
   xmlns:xlink="http://www.w3.org/1999/xlink"
   xmlns="http://www.w3.org/2000/svg"
   xmlns:svg="http://www.w3.org/2000/svg">
  <defs
     id="defs832">
    <linearGradient
       id="linearGradient34997">
      <stop
         style="stop-color:#fff12b;stop-opacity:1"
         offset="0"
         id="stop34993" />
      <stop
         style="stop-color:#f3722e;stop-opacity:1"
         offset="1"
         id="stop34995" />
    </linearGradient>
    <linearGradient
       id="linearGradient19427">
      <stop
         style="stop-color:#eae434;stop-opacity:1"
         offset="0"
         id="stop19423" />
      <stop
         style="stop-color:#04964c;stop-opacity:1"
         offset="1"
         id="stop19425" />
    </linearGradient>
    <linearGradient
       id="linearGradient16245">
      <stop
         style="stop-color:#efe832;stop-opacity:1"
         offset="0"
         id="stop16241" />
      <stop
         style="stop-color:#06964b;stop-opacity:1"
         offset="1"
         id="stop16243" />
    </linearGradient>
    <linearGradient
       xlink:href="#linearGradient16245"
       id="linearGradient16247"
       x1="-258.37302"
       y1="157.83864"
       x2="-201.37692"
       y2="157.83864"
       gradientUnits="userSpaceOnUse"
       gradientTransform="translate(473.76151,-16.970563)" />
    <linearGradient
       xlink:href="#linearGradient19427"
       id="linearGradient19429"
       x1="-229.89062"
       y1="241.64062"
       x2="-229.89062"
       y2="245.49608"
       gradientUnits="userSpaceOnUse"
       gradientTransform="translate(473.77744,-18.965803)" />
    <linearGradient
       xlink:href="#linearGradient34997"
       id="linearGradient34999"
       x1="-250.53125"
       y1="296.20312"
       x2="-209.2207"
       y2="296.20312"
       gradientUnits="userSpaceOnUse"
       gradientTransform="translate(473.76252,-24.763663)" />
    <linearGradient
       xlink:href="#linearGradient34997"
       id="linearGradient47768"
       x1="-662.97656"
       y1="-50.776466"
       x2="-662.97656"
       y2="10.82812"
       gradientUnits="userSpaceOnUse"
       gradientTransform="translate(885.48115,30.581284)" />
    <linearGradient
       xlink:href="#linearGradient34997"
       id="linearGradient5432"
       gradientUnits="userSpaceOnUse"
       x1="-542.07245"
       y1="143.11005"
       x2="-384.00198"
       y2="267.56085"
       gradientTransform="matrix(-1,0,0,1,-334.77818,63.957768)" />
    <linearGradient
       xlink:href="#linearGradient34997"
       id="linearGradient5558"
       gradientUnits="userSpaceOnUse"
       x1="-542.07245"
       y1="143.11005"
       x2="-384.00198"
       y2="267.56085"
       gradientTransform="translate(789.87662,63.957768)" />
  </defs>
  <g
     id="g834">
    <g
       id="g38539"
       transform="matrix(2.2568985,0,0,2.2568985,-2.1099285,45.36201)">
      <g
         id="g102290"
         transform="translate(0.11819,-20.479667)">
        <path
           style="fill:#71bf44;fill-opacity:1;stroke:none;stroke-width:1px;stroke-linecap:butt;stroke-linejoin:miter;stroke-opacity:1"
           d="m 365.17478,305.95848 c -6.35772,-26.37008 29.20645,-48.81843 52.25,-62.875 -10.0768,22.3964 -1.24005,36.47043 26.5,41.875 -13.39609,6.43725 -25.098,14.56866 -36.875,22.625 z"
           id="path56414" />
        <path
           style="fill:#71bf44;fill-opacity:1;stroke:none;stroke-width:1px;stroke-linecap:butt;stroke-linejoin:miter;stroke-opacity:1"
           d="m 79.58884,305.95848 c 6.35772,-26.37008 -29.20645,-48.81843 -52.25,-62.875 10.0768,22.3964 1.24005,36.47043 -26.5,41.875 13.39609,6.43725 25.098,14.56866 36.875,22.625 z"
           id="path51973" />
        <path
           style="fill:#22b24c;fill-opacity:1;stroke:none;stroke-width:1px;stroke-linecap:butt;stroke-linejoin:miter;stroke-opacity:1"
           d="m 32.58884,316.33348 c -4.63186,-27.22897 35.78644,-13.48145 47,-10.375 -6.18787,21.18713 -12.87614,41.87386 -17.5,64.625 l -28.625,-20.75 z"
           id="path51594" />
        <path
           style="fill:#22b24c;fill-opacity:1;stroke:none;stroke-width:1px;stroke-linecap:butt;stroke-linejoin:miter;stroke-opacity:1"
           d="m 412.17478,316.33348 c 4.63186,-27.22897 -35.78644,-13.48145 -47,-10.375 6.18787,21.18713 12.87614,41.87386 17.5,64.625 l 28.625,-20.75 z"
           id="path56416" />
        <path
           id="path50640"
           style="fill:#71bf44;fill-opacity:1;stroke:none;stroke-width:1px;stroke-linecap:butt;stroke-linejoin:miter;stroke-opacity:1"
           d="m 32.58884,316.33348 c -1.87661,13.36347 1.38586,44.8563 -26.5,56.5 -4.934,17.75263 108.64838,58.22554 216.29297,57.92188 107.64459,0.30366 221.22697,-40.16925 216.29297,-57.92188 -27.88586,-11.6437 -24.62339,-43.13653 -26.5,-56.5 -17.53856,46.5115 -126.23469,53.69393 -189.26367,53.74023 -0.17645,0 -0.35286,-0.01 -0.5293,-0.01 -0.17644,1.5e-4 -0.35285,0.01 -0.5293,0.01 -63.02898,-0.0463 -171.72511,-7.22873 -189.26367,-53.74023 z" />
        <g
           id="g102250">
          <g
             aria-label="       Green University"
             transform="matrix(0.95927836,0,0,0.90114347,8.3294941,25.744767)"
             id="text58665"
             style="font-size:49.3333px;line-height:1.25;font-family:'Siyam Rupali';-inkscape-font-specification:'Siyam Rupali';letter-spacing:0.45px;fill:#22b24c">
            <path
               d="M 74.865767,378.93023 68.77982,381.677 q -2.557761,-6.0413 -8.179012,-8.13368 -4.898842,-1.82348 -9.427463,0.1921 -4.506046,2.02399 -6.237091,6.6745 -1.789868,4.80854 0.397915,9.42696 2.187782,4.61842 7.222076,6.49232 3.273419,1.21846 6.020965,0.67327 2.770122,-0.53678 5.239623,-2.95897 l -9.61708,-3.57974 2.210024,-5.9373 16.705726,6.21831 -0.475843,1.41648 q -1.621805,4.35703 -5.333078,7.42225 -3.711273,3.06521 -8.065431,3.78347 -4.354159,0.71825 -9.185275,-1.08002 -5.169745,-1.92432 -8.40139,-5.67184 -3.200666,-3.76169 -4.024896,-8.79787 -0.801656,-5.02779 0.988212,-9.83633 2.453715,-6.59198 8.625826,-9.84645 7.32935,-3.87753 15.614488,-0.79358 4.334458,1.6134 7.507912,4.61957 2.67893,2.53936 4.499739,6.96978 z"
               style="font-weight:bold;font-family:'Century Gothic';-inkscape-font-specification:'Century Gothic Bold'"
               id="path102169" />
            <path
               d="m 78.462022,383.18007 5.419525,1.54961 -0.907255,3.17297 q 1.4165,-1.62434 3.153739,-2.17987 1.737239,-0.55553 3.474266,-0.0589 1.227499,0.35098 2.385376,1.38357 l -3.52487,4.87979 q -0.952762,-0.87372 -1.670734,-1.07901 -1.459102,-0.41721 -2.994697,1.09792 -1.512435,1.52175 -3.022318,6.80231 l -0.327821,1.23412 -2.91381,10.19056 -6.276458,-1.79464 z"
               style="font-weight:bold;font-family:'Century Gothic';-inkscape-font-specification:'Century Gothic Bold'"
               id="path102171" />
            <path
               d="m 116.47261,408.3825 -20.562788,-4.84402 q -0.195226,2.82477 1.346292,4.89551 1.570488,2.05282 4.571666,2.75982 3.58735,0.84507 6.7575,-1.05615 l 4.79622,3.80263 q -2.69027,2.38548 -5.82976,3.10603 -3.13397,0.69711 -7.00268,-0.21425 -6.002361,-1.41399 -8.888018,-6.07818 -2.880134,-4.68764 -1.53795,-10.38519 1.375325,-5.83824 6.032639,-8.79976 4.686279,-2.97945 10.360389,-1.64278 6.02581,1.41951 8.88938,6.17749 2.86908,4.73453 1.37777,11.06514 z m -5.23688,-6.55446 q -0.13043,-2.28278 -1.69134,-4.06112 -1.53746,-1.77281 -3.99936,-2.35276 -2.67293,-0.62967 -5.04285,0.39591 -1.487055,0.6396 -3.123468,2.75365 z"
               style="font-weight:bold;font-family:'Century Gothic';-inkscape-font-specification:'Century Gothic Bold'"
               id="path102173" />
            <path
               d="m 147.37687,413.92115 -20.80566,-3.66292 q -0.0337,2.8313 1.62341,4.81072 1.68505,1.95987 4.72168,2.49448 3.62972,0.63903 6.68623,-1.43997 l 5.00537,3.52279 q -2.54979,2.53509 -5.64306,3.43359 -3.08908,0.87478 -7.00349,0.18563 -6.07326,-1.06923 -9.22033,-5.56118 -3.14289,-4.51567 -2.12797,-10.28053 1.03999,-5.90719 5.52075,-9.12961 4.50866,-3.24196 10.24979,-2.23121 6.09698,1.0734 9.22735,5.66024 3.13454,4.56313 2.00684,10.96852 z m -5.60231,-6.24499 q -0.26046,-2.27162 -1.92028,-3.95801 -1.63611,-1.6822 -4.12709,-2.12075 -2.7045,-0.47614 -5.01204,0.68299 -1.44815,0.7234 -2.96128,2.92737 z"
               style="font-weight:bold;font-family:'Century Gothic';-inkscape-font-specification:'Century Gothic Bold'"
               id="path102175" />
            <path
               d="m 154.27691,399.72089 6.5056,0.77906 -0.31793,2.65486 q 2.44775,-1.59921 4.3275,-2.10192 1.90653,-0.52377 3.79603,-0.2975 3.87465,0.464 6.25369,3.49035 1.99721,2.56819 1.45875,7.06471 l -2.05936,17.19678 -6.45777,-0.77333 1.36623,-11.40871 q 0.55852,-4.66394 0.31131,-6.24623 -0.22329,-1.57942 -1.18115,-2.49473 -0.93108,-0.93636 -2.46181,-1.11966 -1.98516,-0.23773 -3.58061,0.9298 -1.56868,1.14649 -2.39947,3.42454 -0.43309,1.18543 -0.92,5.25143 l -1.25166,10.452 -6.50559,-0.77906 z"
               style="font-weight:bold;font-family:'Century Gothic';-inkscape-font-specification:'Century Gothic Bold'"
               id="path102177" />
            <path
               d="m 196.79073,394.77329 6.76583,0.20292 -0.68749,22.92197 q -0.0888,2.96156 0.37998,4.20469 0.49288,1.24385 1.6503,2.02564 1.18222,0.75844 2.86766,0.80899 1.78175,0.0534 3.08242,-0.72693 1.32475,-0.77964 1.84385,-2.01724 0.54391,-1.26095 0.65079,-4.82445 l 0.66221,-22.07925 6.76584,0.20292 -0.63333,21.11615 q -0.16032,5.34525 -0.82437,7.39787 -0.66405,2.05263 -2.43133,3.92758 -1.74322,1.87566 -3.98653,2.74825 -2.24259,0.84852 -5.18007,0.76041 -3.85243,-0.11554 -6.66496,-1.95915 -2.78773,-1.86696 -3.93625,-4.55234 -1.14781,-2.70945 -0.95788,-9.04189 z"
               style="font-weight:bold;font-family:'Century Gothic';-inkscape-font-specification:'Century Gothic Bold'"
               id="path102179" />
            <path
               d="m 226.39509,404.68747 6.5484,-0.2194 0.0895,2.67233 q 2.17606,-1.95287 3.95748,-2.73562 1.8047,-0.80763 3.70663,-0.87135 3.90015,-0.13067 6.71177,2.49866 2.36457,2.23457 2.51621,6.76068 l 0.57996,17.30993 -6.50026,0.21779 -0.38475,-11.48378 q -0.15729,-4.69463 -0.64227,-6.22091 -0.4609,-1.52709 -1.54682,-2.28608 -1.06265,-0.78386 -2.60345,-0.73224 -1.99822,0.0669 -3.39755,1.46355 -1.37607,1.37171 -1.85074,3.74962 -0.24777,1.2375 -0.11064,5.33026 l 0.35249,10.52078 -6.5484,0.2194 z"
               style="font-weight:bold;font-family:'Century Gothic';-inkscape-font-specification:'Century Gothic Bold'"
               id="path102181" />
            <path
               d="m 257.01352,392.42588 q 1.72922,-0.13361 3.05059,1.02062 1.34538,1.15238 1.48271,2.92963 0.13548,1.75324 -0.99288,3.09676 -1.13022,1.31951 -2.83542,1.45128 -1.75324,0.13547 -3.09862,-1.01691 -1.32322,-1.17825 -1.46241,-2.97952 -0.13362,-1.72921 0.9966,-3.04873 1.13021,-1.31951 2.85943,-1.45313 z m -2.45891,11.01384 6.58064,-0.5085 2.01914,26.13042 -6.58064,0.5085 z"
               style="font-weight:bold;font-family:'Century Gothic';-inkscape-font-specification:'Century Gothic Bold'"
               id="path102183" />
            <path
               d="m 263.72967,402.86592 6.65232,-0.76891 8.3562,14.60195 4.78094,-16.12039 6.62839,-0.76614 -8.06999,27.31557 -4.23547,0.48955 z"
               style="font-weight:bold;font-family:'Century Gothic';-inkscape-font-specification:'Century Gothic Bold'"
               id="path102185" />
            <path
               d="m 321.42402,409.75977 -20.82616,3.54455 q 0.92003,2.67786 3.14616,3.98499 2.24584,1.27934 5.28546,0.76201 3.6333,-0.61838 5.81302,-3.60389 l 5.89832,1.63509 q -1.54917,3.24472 -4.16035,5.1308 -2.61523,1.86233 -6.53349,2.52921 -6.07924,1.03466 -10.55323,-2.1379 -4.47802,-3.19631 -5.46015,-8.96684 -1.00637,-5.91302 2.13032,-10.4542 3.1564,-4.56897 8.90318,-5.54706 6.10299,-1.0387 10.59314,2.22885 4.48611,3.2438 5.57736,9.6555 z m -7.37565,-3.99819 q -1.00896,-2.05186 -3.1391,-3.08211 -2.10639,-1.03429 -4.59983,-0.60991 -2.70716,0.46075 -4.49074,2.32814 -1.12068,1.16814 -1.80483,3.7525 z"
               style="font-weight:bold;font-family:'Century Gothic';-inkscape-font-specification:'Century Gothic Bold'"
               id="path102187" />
            <path
               d="m 321.94469,394.21787 5.51175,-1.18029 0.69103,3.22697 q 0.48651,-2.09958 1.7586,-3.40664 1.27208,-1.30706 3.03867,-1.68536 1.24839,-0.26733 2.75579,0.0996 l -0.81681,5.96405 q -1.25167,-0.3232 -1.98186,-0.16684 -1.48393,0.31777 -2.1269,2.37696 -0.61942,2.05414 0.5306,7.42457 l 0.29089,1.24335 2.21934,10.36399 -6.38327,1.36691 z"
               style="font-weight:bold;font-family:'Century Gothic';-inkscape-font-specification:'Century Gothic Bold'"
               id="path102189" />
            <path
               d="m 354.85641,390.28073 -2.95557,4.94066 q -3.00529,-1.77797 -4.96767,-1.28463 -1.07463,0.27016 -1.56457,0.89009 -0.49582,0.59657 -0.3255,1.27405 0.12921,0.51396 0.61458,0.86386 0.50286,0.32067 2.2093,0.68649 l 2.62982,0.58078 q 4.14923,0.89427 6.00328,2.44005 1.85405,1.54578 2.4942,4.0922 0.85159,3.38743 -1.07842,6.28192 -1.90664,2.88862 -6.08837,3.93989 -5.56006,1.39778 -9.96979,-2.11351 l 2.84998,-5.26184 q 1.45025,1.02634 3.15095,1.46812 1.71819,0.41255 2.88627,0.1189 1.26152,-0.31714 1.87976,-1.11835 0.61823,-0.80122 0.41855,-1.59551 -0.37,-1.47178 -3.50241,-2.17459 l -2.41943,-0.53431 q -6.94858,-1.55662 -8.12318,-6.22894 -0.75762,-3.01365 1.02073,-5.72098 1.79584,-2.73657 5.41689,-3.64689 2.47633,-0.62254 4.92499,-0.0707 2.46615,0.52257 4.49561,2.17328 z"
               style="font-weight:bold;font-family:'Century Gothic';-inkscape-font-specification:'Century Gothic Bold'"
               id="path102191" />
            <path
               d="m 358.45123,374.19954 q 1.66644,-0.48068 3.19398,0.38238 1.55069,0.85638 2.04472,2.56911 0.48736,1.68958 -0.34588,3.23359 -0.83991,1.52087 -2.4832,1.99487 -1.68958,0.48735 -3.24027,-0.36903 -1.53422,-0.8862 -2.03493,-2.62207 -0.48067,-1.66643 0.35924,-3.1873 0.83991,-1.52087 2.50634,-2.00155 z m -0.17998,11.28355 6.34171,-1.82925 7.26356,25.18168 -6.34171,1.82924 z"
               style="font-weight:bold;font-family:'Century Gothic';-inkscape-font-specification:'Century Gothic Bold'"
               id="path102193" />
            <path
               d="m 367.72899,372.60985 6.23451,-2.01511 2.9708,9.19132 3.7132,-1.20018 1.74099,5.38643 -3.7132,1.20018 6.31944,19.5516 -6.23451,2.0151 -6.31943,-19.5516 -3.20894,1.03719 -1.74099,-5.38643 3.20893,-1.03719 z"
               style="font-weight:bold;font-family:'Century Gothic';-inkscape-font-specification:'Century Gothic Bold'"
               id="path102195" />
            <path
               d="m 380.0653,379.14192 6.23582,-2.50645 12.46109,12.72309 0.83753,-18.06839 6.25817,-2.51543 -1.89335,39.3399 -6.30288,2.5334 0.70335,-12.71829 z"
               style="font-weight:bold;font-family:'Century Gothic';-inkscape-font-specification:'Century Gothic Bold'"
               id="path102197" />
          </g>
          <g
             aria-label="       Green University"
             transform="matrix(0.95927836,0,0,0.90114347,10.248051,27.663324)"
             id="text100396"
             style="font-size:49.3333px;line-height:1.25;font-family:'Siyam Rupali';-inkscape-font-specification:'Siyam Rupali';letter-spacing:0.45px;fill:#ffffff">
            <path
               d="M 74.865767,378.93023 68.77982,381.677 q -2.557761,-6.0413 -8.179012,-8.13368 -4.898842,-1.82348 -9.427463,0.1921 -4.506046,2.02399 -6.237091,6.6745 -1.789868,4.80854 0.397915,9.42696 2.187782,4.61842 7.222076,6.49232 3.273419,1.21846 6.020965,0.67327 2.770122,-0.53678 5.239623,-2.95897 l -9.61708,-3.57974 2.210024,-5.9373 16.705726,6.21831 -0.475843,1.41648 q -1.621805,4.35703 -5.333078,7.42225 -3.711273,3.06521 -8.065431,3.78347 -4.354159,0.71825 -9.185275,-1.08002 -5.169745,-1.92432 -8.40139,-5.67184 -3.200666,-3.76169 -4.024896,-8.79787 -0.801656,-5.02779 0.988212,-9.83633 2.453715,-6.59198 8.625826,-9.84645 7.32935,-3.87753 15.614488,-0.79358 4.334458,1.6134 7.507912,4.61957 2.67893,2.53936 4.499739,6.96978 z"
               style="font-weight:bold;font-family:'Century Gothic';-inkscape-font-specification:'Century Gothic Bold'"
               id="path102138" />
            <path
               d="m 78.462022,383.18007 5.419525,1.54961 -0.907255,3.17297 q 1.4165,-1.62434 3.153739,-2.17987 1.737239,-0.55553 3.474266,-0.0589 1.227499,0.35098 2.385376,1.38357 l -3.52487,4.87979 q -0.952762,-0.87372 -1.670734,-1.07901 -1.459102,-0.41721 -2.994697,1.09792 -1.512435,1.52175 -3.022318,6.80231 l -0.327821,1.23412 -2.91381,10.19056 -6.276458,-1.79464 z"
               style="font-weight:bold;font-family:'Century Gothic';-inkscape-font-specification:'Century Gothic Bold'"
               id="path102140" />
            <path
               d="m 116.47261,408.3825 -20.562788,-4.84402 q -0.195226,2.82477 1.346292,4.89551 1.570488,2.05282 4.571666,2.75982 3.58735,0.84507 6.7575,-1.05615 l 4.79622,3.80263 q -2.69027,2.38548 -5.82976,3.10603 -3.13397,0.69711 -7.00268,-0.21425 -6.002361,-1.41399 -8.888018,-6.07818 -2.880134,-4.68764 -1.53795,-10.38519 1.375325,-5.83824 6.032639,-8.79976 4.686279,-2.97945 10.360389,-1.64278 6.02581,1.41951 8.88938,6.17749 2.86908,4.73453 1.37777,11.06514 z m -5.23688,-6.55446 q -0.13043,-2.28278 -1.69134,-4.06112 -1.53746,-1.77281 -3.99936,-2.35276 -2.67293,-0.62967 -5.04285,0.39591 -1.487055,0.6396 -3.123468,2.75365 z"
               style="font-weight:bold;font-family:'Century Gothic';-inkscape-font-specification:'Century Gothic Bold'"
               id="path102142" />
            <path
               d="m 147.37687,413.92115 -20.80566,-3.66292 q -0.0337,2.8313 1.62341,4.81072 1.68505,1.95987 4.72168,2.49448 3.62972,0.63903 6.68623,-1.43997 l 5.00537,3.52279 q -2.54979,2.53509 -5.64306,3.43359 -3.08908,0.87478 -7.00349,0.18563 -6.07326,-1.06923 -9.22033,-5.56118 -3.14289,-4.51567 -2.12797,-10.28053 1.03999,-5.90719 5.52075,-9.12961 4.50866,-3.24196 10.24979,-2.23121 6.09698,1.0734 9.22735,5.66024 3.13454,4.56313 2.00684,10.96852 z m -5.60231,-6.24499 q -0.26046,-2.27162 -1.92028,-3.95801 -1.63611,-1.6822 -4.12709,-2.12075 -2.7045,-0.47614 -5.01204,0.68299 -1.44815,0.7234 -2.96128,2.92737 z"
               style="font-weight:bold;font-family:'Century Gothic';-inkscape-font-specification:'Century Gothic Bold'"
               id="path102144" />
            <path
               d="m 154.27691,399.72089 6.5056,0.77906 -0.31793,2.65486 q 2.44775,-1.59921 4.3275,-2.10192 1.90653,-0.52377 3.79603,-0.2975 3.87465,0.464 6.25369,3.49035 1.99721,2.56819 1.45875,7.06471 l -2.05936,17.19678 -6.45777,-0.77333 1.36623,-11.40871 q 0.55852,-4.66394 0.31131,-6.24623 -0.22329,-1.57942 -1.18115,-2.49473 -0.93108,-0.93636 -2.46181,-1.11966 -1.98516,-0.23773 -3.58061,0.9298 -1.56868,1.14649 -2.39947,3.42454 -0.43309,1.18543 -0.92,5.25143 l -1.25166,10.452 -6.50559,-0.77906 z"
               style="font-weight:bold;font-family:'Century Gothic';-inkscape-font-specification:'Century Gothic Bold'"
               id="path102146" />
            <path
               d="m 196.79073,394.77329 6.76583,0.20292 -0.68749,22.92197 q -0.0888,2.96156 0.37998,4.20469 0.49288,1.24385 1.6503,2.02564 1.18222,0.75844 2.86766,0.80899 1.78175,0.0534 3.08242,-0.72693 1.32475,-0.77964 1.84385,-2.01724 0.54391,-1.26095 0.65079,-4.82445 l 0.66221,-22.07925 6.76584,0.20292 -0.63333,21.11615 q -0.16032,5.34525 -0.82437,7.39787 -0.66405,2.05263 -2.43133,3.92758 -1.74322,1.87566 -3.98653,2.74825 -2.24259,0.84852 -5.18007,0.76041 -3.85243,-0.11554 -6.66496,-1.95915 -2.78773,-1.86696 -3.93625,-4.55234 -1.14781,-2.70945 -0.95788,-9.04189 z"
               style="font-weight:bold;font-family:'Century Gothic';-inkscape-font-specification:'Century Gothic Bold'"
               id="path102148" />
            <path
               d="m 226.39509,404.68747 6.5484,-0.2194 0.0895,2.67233 q 2.17606,-1.95287 3.95748,-2.73562 1.8047,-0.80763 3.70663,-0.87135 3.90015,-0.13067 6.71177,2.49866 2.36457,2.23457 2.51621,6.76068 l 0.57996,17.30993 -6.50026,0.21779 -0.38475,-11.48378 q -0.15729,-4.69463 -0.64227,-6.22091 -0.4609,-1.52709 -1.54682,-2.28608 -1.06265,-0.78386 -2.60345,-0.73224 -1.99822,0.0669 -3.39755,1.46355 -1.37607,1.37171 -1.85074,3.74962 -0.24777,1.2375 -0.11064,5.33026 l 0.35249,10.52078 -6.5484,0.2194 z"
               style="font-weight:bold;font-family:'Century Gothic';-inkscape-font-specification:'Century Gothic Bold'"
               id="path102150" />
            <path
               d="m 257.01352,392.42588 q 1.72922,-0.13361 3.05059,1.02062 1.34538,1.15238 1.48271,2.92963 0.13548,1.75324 -0.99288,3.09676 -1.13022,1.31951 -2.83542,1.45128 -1.75324,0.13547 -3.09862,-1.01691 -1.32322,-1.17825 -1.46241,-2.97952 -0.13362,-1.72921 0.9966,-3.04873 1.13021,-1.31951 2.85943,-1.45313 z m -2.45891,11.01384 6.58064,-0.5085 2.01914,26.13042 -6.58064,0.5085 z"
               style="font-weight:bold;font-family:'Century Gothic';-inkscape-font-specification:'Century Gothic Bold'"
               id="path102152" />
            <path
               d="m 263.72967,402.86592 6.65232,-0.76891 8.3562,14.60195 4.78094,-16.12039 6.62839,-0.76614 -8.06999,27.31557 -4.23547,0.48955 z"
               style="font-weight:bold;font-family:'Century Gothic';-inkscape-font-specification:'Century Gothic Bold'"
               id="path102154" />
            <path
               d="m 321.42402,409.75977 -20.82616,3.54455 q 0.92003,2.67786 3.14616,3.98499 2.24584,1.27934 5.28546,0.76201 3.6333,-0.61838 5.81302,-3.60389 l 5.89832,1.63509 q -1.54917,3.24472 -4.16035,5.1308 -2.61523,1.86233 -6.53349,2.52921 -6.07924,1.03466 -10.55323,-2.1379 -4.47802,-3.19631 -5.46015,-8.96684 -1.00637,-5.91302 2.13032,-10.4542 3.1564,-4.56897 8.90318,-5.54706 6.10299,-1.0387 10.59314,2.22885 4.48611,3.2438 5.57736,9.6555 z m -7.37565,-3.99819 q -1.00896,-2.05186 -3.1391,-3.08211 -2.10639,-1.03429 -4.59983,-0.60991 -2.70716,0.46075 -4.49074,2.32814 -1.12068,1.16814 -1.80483,3.7525 z"
               style="font-weight:bold;font-family:'Century Gothic';-inkscape-font-specification:'Century Gothic Bold'"
               id="path102156" />
            <path
               d="m 321.94469,394.21787 5.51175,-1.18029 0.69103,3.22697 q 0.48651,-2.09958 1.7586,-3.40664 1.27208,-1.30706 3.03867,-1.68536 1.24839,-0.26733 2.75579,0.0996 l -0.81681,5.96405 q -1.25167,-0.3232 -1.98186,-0.16684 -1.48393,0.31777 -2.1269,2.37696 -0.61942,2.05414 0.5306,7.42457 l 0.29089,1.24335 2.21934,10.36399 -6.38327,1.36691 z"
               style="font-weight:bold;font-family:'Century Gothic';-inkscape-font-specification:'Century Gothic Bold'"
               id="path102158" />
            <path
               d="m 354.85641,390.28073 -2.95557,4.94066 q -3.00529,-1.77797 -4.96767,-1.28463 -1.07463,0.27016 -1.56457,0.89009 -0.49582,0.59657 -0.3255,1.27405 0.12921,0.51396 0.61458,0.86386 0.50286,0.32067 2.2093,0.68649 l 2.62982,0.58078 q 4.14923,0.89427 6.00328,2.44005 1.85405,1.54578 2.4942,4.0922 0.85159,3.38743 -1.07842,6.28192 -1.90664,2.88862 -6.08837,3.93989 -5.56006,1.39778 -9.96979,-2.11351 l 2.84998,-5.26184 q 1.45025,1.02634 3.15095,1.46812 1.71819,0.41255 2.88627,0.1189 1.26152,-0.31714 1.87976,-1.11835 0.61823,-0.80122 0.41855,-1.59551 -0.37,-1.47178 -3.50241,-2.17459 l -2.41943,-0.53431 q -6.94858,-1.55662 -8.12318,-6.22894 -0.75762,-3.01365 1.02073,-5.72098 1.79584,-2.73657 5.41689,-3.64689 2.47633,-0.62254 4.92499,-0.0707 2.46615,0.52257 4.49561,2.17328 z"
               style="font-weight:bold;font-family:'Century Gothic';-inkscape-font-specification:'Century Gothic Bold'"
               id="path102160" />
            <path
               d="m 358.45123,374.19954 q 1.66644,-0.48068 3.19398,0.38238 1.55069,0.85638 2.04472,2.56911 0.48736,1.68958 -0.34588,3.23359 -0.83991,1.52087 -2.4832,1.99487 -1.68958,0.48735 -3.24027,-0.36903 -1.53422,-0.8862 -2.03493,-2.62207 -0.48067,-1.66643 0.35924,-3.1873 0.83991,-1.52087 2.50634,-2.00155 z m -0.17998,11.28355 6.34171,-1.82925 7.26356,25.18168 -6.34171,1.82924 z"
               style="font-weight:bold;font-family:'Century Gothic';-inkscape-font-specification:'Century Gothic Bold'"
               id="path102162" />
            <path
               d="m 367.72899,372.60985 6.23451,-2.01511 2.9708,9.19132 3.7132,-1.20018 1.74099,5.38643 -3.7132,1.20018 6.31944,19.5516 -6.23451,2.0151 -6.31943,-19.5516 -3.20894,1.03719 -1.74099,-5.38643 3.20893,-1.03719 z"
               style="font-weight:bold;font-family:'Century Gothic';-inkscape-font-specification:'Century Gothic Bold'"
               id="path102164" />
            <path
               d="m 380.0653,379.14192 6.23582,-2.50645 12.46109,12.72309 0.83753,-18.06839 6.25817,-2.51543 -1.89335,39.3399 -6.30288,2.5334 0.70335,-12.71829 z"
               style="font-weight:bold;font-family:'Century Gothic';-inkscape-font-specification:'Century Gothic Bold'"
               id="path102166" />
          </g>
        </g>
      </g>
      <g
         id="g38457">
        <g
           id="g5762"
           transform="translate(-5.04922,-51.886721)">
          <path
             id="path3926"
             style="fill:none;fill-opacity:1;stroke:url(#linearGradient5558);stroke-width:3.545;stroke-linecap:round;stroke-linejoin:miter;stroke-miterlimit:4;stroke-dasharray:none;stroke-opacity:1"
             d="m 284.55133,371.66419 c 0,0 -35.97505,17.33642 -52.00212,17.33642 m 125.54225,-280.2362 c 3.04969,6.50871 8.76665,17.76636 11.52955,24.37328 2.7629,6.60692 5.2396,13.31297 7.38014,20.10369 2.14053,6.79072 3.94492,13.66572 5.3534,20.59702 1.40848,6.93129 2.42112,13.91853 2.99039,20.92671 0.56927,7.00818 0.69528,14.03697 0.34844,21.03004 -0.34684,6.99307 -1.16639,13.95014 -2.46399,20.82128 -1.29761,6.87113 -3.07311,13.6561 -5.29313,20.30159 -2.22002,6.64549 -4.8844,13.1513 -7.94998,19.48449 -3.06558,6.33319 -6.53219,12.49358 -10.33621,18.47394 -3.80401,5.98035 -7.94524,11.78046 -12.35632,17.3959 -4.41108,5.61544 -9.0918,11.04599 -13.9911,16.29548 -4.89929,5.24949 -10.01694,10.3177 -15.30995,15.22745 -5.29301,4.90976 -10.76115,9.66084 -16.36395,14.27926 -5.60281,4.61841 -11.33999,9.10393 -17.07742,13.58965 m 10.88584,-25.68689 c -9.55267,4.85309 -14.554,13.71868 -11.38672,25.6875 11.18587,8.86211 20.4957,5.51669 28.25195,-0.0117 -7.96253,-6.55033 -16.5279,-6.88796 -23.98242,-2.86328 5.96395,-4.68663 10.08885,-11.54185 7.11719,-22.8125 z m 15.48047,-14.14258 c -9.13029,5.5112 -13.51025,14.59222 -9.6543,26.37305 11.58368,8.35945 20.75131,4.51566 28.20312,-1.48828 -8.47378,-6.16468 -17.17494,-5.911 -24.47265,-1.33203 5.89049,-5.08977 9.81427,-12.3115 5.92383,-23.55274 z m 14.2207,-14.94531 c -1.44445,1.05902 -2.74114,2.20008 -3.87891,3.42188 -5.62223,6.0296 -7.49689,14.10846 -3.59179,23.64257 12.03617,7.6779 20.97955,3.24235 28.02929,-3.31054 -9.06565,-5.64439 -17.85666,-4.65175 -24.88672,0.58007 4.03478,-3.92487 7.01423,-8.86303 6.67579,-15.36328 -0.14138,-2.7225 -0.86854,-5.70253 -2.34766,-8.9707 z m 12.65625,-15.83984 c -7.82457,7.12634 -10.46903,16.67127 -4.77344,27.69922 3.02157,1.64223 5.81295,2.59474 8.41602,2.99023 8.19672,1.2454 14.38164,-3.06275 19.29687,-8.49805 -9.72292,-4.94026 -18.60707,-3.03735 -25.17187,2.89844 5.44356,-6.17704 8.58691,-14.36468 2.23242,-25.08984 z m 10.75976,-16.61133 c -6.81644,7.99829 -8.33686,17.6526 -1.49023,28.01953 13.10539,5.75416 21.29171,-0.18926 27.07422,-8.04688 -10.45368,-4.04594 -19.25722,-1.058 -25.3418,5.86719 5.07847,-6.8827 7.69503,-15.69703 -0.24219,-25.83984 z m 8.58008,-17.31836 c -1.271,2.03479 -2.25096,4.09424 -2.91406,6.17773 -2.18956,6.92781 -0.94076,14.5182 5.26758,21.75782 13.58856,4.43495 21.13295,-2.36499 26.00976,-10.87891 -11.22112,-2.90328 -19.79572,1.41746 -25.06445,9.35742 2.94967,-4.96751 4.79075,-10.66222 3.05078,-16.66015 -0.9447,-3.25647 -2.94079,-6.54189 -6.34961,-9.75391 z m 6.11524,-17.82031 c -4.09138,9.64129 -2.74595,19.12597 6.63867,27.27539 3.97808,-8.66067 5.16366,-19.20371 -6.63867,-27.27539 z m 6.63867,27.27539 c 8.5187,1.74409 14.35081,-0.40493 18.51367,-4.52344 2.63156,-2.60919 4.52076,-5.94729 5.9668,-9.4668 -7.40404,-0.91287 -13.41753,1.06194 -17.75977,4.67383 -2.85373,2.37897 -5.08124,5.53065 -6.7207,9.31641 z m -2.75977,-45.45508 c -2.57937,10.16078 0.21488,19.35578 10.75196,25.9375 2.58191,-9.15755 2.14582,-19.74864 -10.75196,-25.9375 z m 10.75196,25.9375 c 14.27232,1.04831 19.92748,-7.53517 22.41015,-17.11914 -12.36782,0.1738 -19.52998,7.0719 -22.41015,17.11914 z m -9.23243,-44.37305 c -0.0933,0.94298 -0.14439,1.87005 -0.15039,2.7793 -0.0454,9.14423 4.3179,16.77754 14.70899,21.23828 0.99474,-8.1021 -0.33194,-16.8857 -9.42774,-21.88281 -1.49908,-0.82464 -3.20118,-1.54208 -5.13086,-2.13477 z m 14.5586,24.01758 c 5.49535,-0.34352 9.53163,-1.91353 12.51367,-4.34375 4.73272,-3.85801 6.62255,-9.722 7.31055,-15.6875 -9.67643,1.48803 -15.62938,7.0361 -18.3125,14.06641 -0.70608,1.85386 -1.20744,3.84647 -1.51172,5.96484 z m 19.41211,-43.39453 c -11.87712,3.45451 -16.9137,12.07938 -16.95313,22.52344 14.02188,-2.86767 17.11343,-12.67362 16.95313,-22.52344 z m -16.95313,22.52344 c -0.28825,-9.4871 -3.7418,-19.27904 -17.7832,-21.68164 0.35851,10.34295 5.78857,18.58075 17.7832,21.68164 z m 13.61328,-45.54883 c -9.77456,4.15531 -14.05871,11.8463 -14.22851,20.22461 -0.0274,1.37853 0.0541,2.79131 0.23828,4.23633 3.87606,-1.3426 6.792,-3.11766 8.95898,-5.23438 5.37035,-5.24564 5.96468,-12.38088 5.03125,-19.22656 z m -13.99023,24.46094 c -1.48045,-9.31747 -6.01872,-18.54941 -20.28906,-19.4043 1.53885,10.34778 8.03525,17.90611 20.28906,19.4043 z m 8.12695,-46.85352 c -10.81845,5.99232 -13.74319,15.67 -11.16601,25.89063 12.848,-6.28616 13.48147,-16.44665 11.16601,-25.89063 z m -11.16601,25.89063 c -2.49591,-9.09228 -7.91733,-17.74196 -22.24024,-17.28516 2.52547,10.25876 9.85788,17.17819 22.24024,17.28516 z m 3.17968,-47.48047 c -7.37565,4.99476 -10.45329,11.75578 -10.25,18.66796 0.0783,2.68148 0.64543,5.42355 1.65821,8.1875 5.80164,-3.64802 8.74708,-7.8578 9.88476,-12.32617 1.22743,-4.81744 0.32365,-9.8154 -1.29297,-14.52929 z m -8.59179,26.85546 c -3.33504,-8.81018 -9.43718,-16.86001 -23.63672,-15.32617 3.3466,10.16709 11.24839,16.40219 23.63672,15.32617 z m -33.6211,-74.8457 c -2.58699,12.080789 2.99668,20.716482 12.7461,25.17383 3.06414,-13.96336 -4.24512,-20.811376 -12.7461,-25.17383 z m 21.3711,7.322266 c -7.61366,6.91157 -9.23272,15.185904 -6.4961,23.132814 -3.7008,-6.70707 -9.89373,-11.82651 -21.46875,-10.576173 3.3466,10.167093 11.24839,16.402193 23.63672,15.326173 10.63327,-9.555 8.68886,-19.380961 4.32813,-27.882814 z m 11.13281,19.917974 c -8.81729,7.01474 -10.59013,16.07069 -7.38477,24.91796 -3.54434,-7.73131 -9.76225,-14.14071 -22.56445,-12.75781 3.3466,10.16709 11.24644,16.40414 23.63477,15.32813 11.34868,-8.68443 10.1222,-18.66854 6.31445,-27.48828 z" />
          <path
             id="path5398"
             style="fill:none;fill-opacity:1;stroke:url(#linearGradient5432);stroke-width:3.545;stroke-linecap:round;stroke-linejoin:miter;stroke-miterlimit:4;stroke-dasharray:none;stroke-opacity:1"
             d="m 170.54711,371.66419 c 0,0 35.97505,17.33642 52.00212,17.33642 M 97.00698,108.76441 c -3.04969,6.50871 -8.76665,17.76636 -11.52955,24.37328 -2.7629,6.60692 -5.2396,13.31297 -7.38014,20.10369 -2.14053,6.79072 -3.94492,13.66572 -5.3534,20.59702 -1.40848,6.93129 -2.42112,13.91853 -2.99039,20.92671 -0.56927,7.00818 -0.69528,14.03697 -0.34844,21.03004 0.34684,6.99307 1.16639,13.95014 2.46399,20.82128 1.29761,6.87113 3.07311,13.6561 5.29313,20.30159 2.22002,6.64549 4.8844,13.1513 7.94998,19.48449 3.06558,6.33319 6.53219,12.49358 10.33621,18.47394 3.80401,5.98035 7.94524,11.78046 12.35632,17.3959 4.41108,5.61544 9.0918,11.04599 13.9911,16.29548 4.89929,5.24949 10.01694,10.3177 15.30995,15.22745 5.29301,4.90976 10.76115,9.66084 16.36395,14.27926 5.60281,4.61841 11.33999,9.10393 17.07742,13.58965 M 159.66127,345.9773 c 9.55267,4.85309 14.554,13.71868 11.38672,25.6875 -11.18587,8.86211 -20.4957,5.51669 -28.25195,-0.0117 7.96253,-6.55033 16.5279,-6.88796 23.98242,-2.86328 -5.96395,-4.68663 -10.08885,-11.54185 -7.11719,-22.8125 z M 144.1808,331.83472 c 9.13029,5.5112 13.51025,14.59222 9.6543,26.37305 -11.58368,8.35945 -20.75131,4.51566 -28.20312,-1.48828 8.47378,-6.16468 17.17494,-5.911 24.47265,-1.33203 -5.89049,-5.08977 -9.81427,-12.3115 -5.92383,-23.55274 z m -14.2207,-14.94531 c 1.44445,1.05902 2.74114,2.20008 3.87891,3.42188 5.62223,6.0296 7.49689,14.10846 3.59179,23.64257 -12.03617,7.6779 -20.97955,3.24235 -28.02929,-3.31054 9.06565,-5.64439 17.85666,-4.65175 24.88672,0.58007 -4.03478,-3.92487 -7.01423,-8.86303 -6.67579,-15.36328 0.14138,-2.7225 0.86854,-5.70253 2.34766,-8.9707 z m -12.65625,-15.83984 c 7.82457,7.12634 10.46903,16.67127 4.77344,27.69922 -3.02157,1.64223 -5.81295,2.59474 -8.41602,2.99023 -8.19672,1.2454 -14.38164,-3.06275 -19.29687,-8.49805 9.72292,-4.94026 18.60707,-3.03735 25.17187,2.89844 -5.44356,-6.17704 -8.58691,-14.36468 -2.23242,-25.08984 z m -10.75976,-16.61133 c 6.81644,7.99829 8.33686,17.6526 1.49023,28.01953 -13.10539,5.75416 -21.29171,-0.18926 -27.07422,-8.04688 10.45368,-4.04594 19.25722,-1.058 25.3418,5.86719 -5.07847,-6.8827 -7.69503,-15.69703 0.24219,-25.83984 z m -8.58008,-17.31836 c 1.271,2.03479 2.25096,4.09424 2.91406,6.17773 2.18956,6.92781 0.94076,14.5182 -5.26758,21.75782 -13.58856,4.43495 -21.13295,-2.36499 -26.00976,-10.87891 11.22112,-2.90328 19.79572,1.41746 25.06445,9.35742 -2.94967,-4.96751 -4.79075,-10.66222 -3.05078,-16.66015 0.9447,-3.25647 2.94079,-6.54189 6.34961,-9.75391 z m -6.11524,-17.82031 c 4.09138,9.64129 2.74595,19.12597 -6.63867,27.27539 -3.97808,-8.66067 -5.16366,-19.20371 6.63867,-27.27539 z m -6.63867,27.27539 c -8.5187,1.74409 -14.35081,-0.40493 -18.51367,-4.52344 -2.63156,-2.60919 -4.52076,-5.94729 -5.9668,-9.4668 7.40404,-0.91287 13.41753,1.06194 17.75977,4.67383 2.85373,2.37897 5.08124,5.53065 6.7207,9.31641 z m 2.75977,-45.45508 c 2.57937,10.16078 -0.21488,19.35578 -10.75196,25.9375 -2.58191,-9.15755 -2.14582,-19.74864 10.75196,-25.9375 z m -10.75196,25.9375 c -14.27232,1.04831 -19.92748,-7.53517 -22.41015,-17.11914 12.36782,0.1738 19.52998,7.0719 22.41015,17.11914 z m 9.23243,-44.37305 c 0.0933,0.94298 0.14439,1.87005 0.15039,2.7793 0.0454,9.14423 -4.3179,16.77754 -14.70899,21.23828 -0.99474,-8.1021 0.33194,-16.8857 9.42774,-21.88281 1.49908,-0.82464 3.20118,-1.54208 5.13086,-2.13477 z m -14.5586,24.01758 c -5.49535,-0.34352 -9.53163,-1.91353 -12.51367,-4.34375 -4.73272,-3.85801 -6.62255,-9.722 -7.31055,-15.6875 9.67643,1.48803 15.62938,7.0361 18.3125,14.06641 0.70608,1.85386 1.20744,3.84647 1.51172,5.96484 z M 52.47963,193.30738 c 11.87712,3.45451 16.9137,12.07938 16.95313,22.52344 C 55.41088,212.96315 52.31933,203.1572 52.47963,193.30738 Z m 16.95313,22.52344 c 0.28825,-9.4871 3.7418,-19.27904 17.7832,-21.68164 -0.35851,10.34295 -5.78857,18.58075 -17.7832,21.68164 z M 55.81948,170.28199 c 9.77456,4.15531 14.05871,11.8463 14.22851,20.22461 0.0274,1.37853 -0.0541,2.79131 -0.23828,4.23633 -3.87606,-1.3426 -6.792,-3.11766 -8.95898,-5.23438 -5.37035,-5.24564 -5.96468,-12.38088 -5.03125,-19.22656 z m 13.99023,24.46094 c 1.48045,-9.31747 6.01872,-18.54941 20.28906,-19.4043 -1.53885,10.34778 -8.03525,17.90611 -20.28906,19.4043 z m -8.12695,-46.85352 c 10.81845,5.99232 13.74319,15.67 11.16601,25.89063 -12.848,-6.28616 -13.48147,-16.44665 -11.16601,-25.89063 z m 11.16601,25.89063 c 2.49591,-9.09228 7.91733,-17.74196 22.24024,-17.28516 -2.52547,10.25876 -9.85788,17.17819 -22.24024,17.28516 z m -3.17968,-47.48047 c 7.37565,4.99476 10.45329,11.75578 10.25,18.66796 -0.0783,2.68148 -0.64543,5.42355 -1.65821,8.1875 -5.80164,-3.64802 -8.74708,-7.8578 -9.88476,-12.32617 -1.22743,-4.81744 -0.32365,-9.8154 1.29297,-14.52929 z m 8.59179,26.85546 c 3.33504,-8.81018 9.43718,-16.86001 23.63672,-15.32617 -3.3466,10.16709 -11.24839,16.40219 -23.63672,15.32617 z m 33.6211,-74.8457 c 2.58699,12.080789 -2.99668,20.716482 -12.7461,25.17383 -3.06414,-13.96336 4.24512,-20.811376 12.7461,-25.17383 z m -21.3711,7.322266 c 7.61366,6.91157 9.23272,15.185904 6.4961,23.132814 3.7008,-6.70707 9.89373,-11.82651 21.46875,-10.576173 -3.3466,10.167093 -11.24839,16.402193 -23.63672,15.326173 -10.63327,-9.555 -8.68886,-19.380961 -4.32813,-27.882814 z M 79.37807,105.54957 c 8.81729,7.01474 10.59013,16.07069 7.38477,24.91796 3.54434,-7.73131 9.76225,-14.14071 22.56445,-12.75781 -3.3466,10.16709 -11.24644,16.40414 -23.63477,15.32813 -11.34868,-8.68443 -10.1222,-18.66854 -6.31445,-27.48828 z" />
        </g>
        <g
           id="g38415">
          <g
             id="g41617"
             transform="translate(-21.38654,-1.8451091)">
            <path
               id="path2482"
               style="fill:#71bf44;fill-opacity:1;stroke:none;stroke-width:1px;stroke-linecap:butt;stroke-linejoin:miter;stroke-opacity:1"
               d="m 243.88654,59.056781 c -16.55211,1.047012 -21.59672,2.853938 -28.49805,4.582796 -25.06157,13.625179 -52.98616,19.17567 -84.03711,10.507048 l 0.78516,142.164065 c 9.39553,42.40555 54.19432,84.53366 111.75,112.0625 57.55568,-27.52884 102.35447,-69.65695 111.75,-112.0625 L 356.4217,74.146625 c -31.05095,8.668622 -58.97554,3.118131 -84.03711,-10.507048 -6.90133,-1.728858 -11.94594,-3.535784 -28.49805,-4.582796 z" />
            <g
               id="g41581">
              <path
                 id="path12503"
                 style="fill:url(#linearGradient34999);fill-opacity:1;stroke:none;stroke-width:1px;stroke-linecap:butt;stroke-linejoin:miter;stroke-opacity:1"
                 d="m 260.06135,222.68068 c 0.0705,19.5041 1.06124,39.00955 4.48046,58.51367 -12.70069,11.75535 -15.92984,25.53936 -20.65429,39.00391 -4.72445,-13.46455 -7.95555,-27.24856 -20.65625,-39.00391 3.41923,-19.50411 4.40997,-39.00956 4.48047,-58.51367 0,0 0,0 0,0 z" />
              <g
                 id="g41565"
                 transform="translate(818.7945,3.448847)">
                <path
                   style="fill:none;stroke:#71bf44;stroke-width:1px;stroke-linecap:butt;stroke-linejoin:miter;stroke-opacity:1"
                   d="M -574.90798,316.74941 V 216.46136"
                   id="path38522" />
                <circle
                   style="fill:#71bf44;fill-opacity:1;fill-rule:evenodd;stroke:none"
                   id="path39706"
                   cx="-574.90796"
                   cy="258.25"
                   r="5.4375" />
              </g>
              <path
                 id="path992"
                 style="fill:url(#linearGradient16247);fill-opacity:1;stroke:none;stroke-width:1px;stroke-linecap:butt;stroke-linejoin:miter;stroke-opacity:1"
                 d="m 262.83771,222.68059 9.54688,-159.041013 c -9.49911,-4.15102 -18.99895,-4.58599 -28.49805,-4.58399 v 0 c -9.4991,-0.003 -18.99895,0.43297 -28.49805,4.58399 l 9.54688,159.041013 z" />
              <path
                 id="path13331"
                 style="fill:url(#linearGradient19429);fill-opacity:1;stroke:none;stroke-width:1px;stroke-linecap:butt;stroke-linejoin:miter;stroke-opacity:1"
                 d="m 224.31261,222.68068 c -6.00304,0.0837 -6.28777,4.20009 3.41406,3.79883 h 16.16016 16.16015 c 10.01479,0.4142 9.3873,-3.98629 2.81445,-3.79492 h -18.9746 -18.97461 c -0.20541,-0.006 -0.40597,-0.007 -0.59961,-0.004 z" />
            </g>
          </g>
          <path
             style="fill:url(#linearGradient47768);fill-opacity:1;stroke:none;stroke-width:1px;stroke-linecap:butt;stroke-linejoin:miter;stroke-opacity:1"
             d="m 207.52186,41.323108 h 30.58237 c 20.52043,-11.333345 15.7725,-26.834459 0.70711,-38.2721538 -8.57784,-6.512329 -8.96002,-10.973126 -9.81111,-16.1750682 -9.9212,13.5062382 6.1429,21.5436332 9.8995,28.195883 6.73633,11.928803 -0.97072,18.435905 -7.95496,22.097087 10.79267,-13.744661 5.03679,-20.746507 -3.27036,-31.2010868 -12.21955,-17.2225722 4.43891,-25.1074182 5.56846,-26.1629512 -24.10307,3.377429 -24.63478,22.4895232 -12.72792,35.797281 9.69627,10.837083 6.11943,15.87786 3.27037,21.743534 1.04425,-9.598658 -2.27653,-17.501083 -9.8995,-23.864854 -6.14384,-5.1289758 -4.30595,-10.8788578 -3.09359,-16.5286208 -5.06105,2.464411 -16.34737,14.7130898 -3.18198,27.0468338 11.90675,10.245749 10.90927,11.888686 11.22532,14.407301 -3.68723,-3.974341 -7.92626,-7.050603 -14.67246,-12.374369 -6.56973,-5.184503 -4.148,-9.865923 -4.50781,-14.318912 -7.57209,8.005267 -9.14618,15.918257 -1.41421,23.688077 2.52671,2.682609 5.82056,4.406289 9.28077,5.922019 z"
             id="path41679" />
          <path
             id="rect48300"
             style="fill:#22b24c;fill-opacity:1;fill-rule:evenodd"
             d="m 195.36477,45.421892 h 54.27045 v 7.689786 h -54.27045 z" />
          <g
             id="g38363">
            <g
               id="g57436"
               transform="matrix(0.9934398,0,0,0.9934398,787.30731,-44.953726)">
              <g
                 id="g57418">
                <path
                   style="fill:#ffffff;fill-opacity:1;stroke:none;stroke-width:1px;stroke-linecap:butt;stroke-linejoin:miter;stroke-opacity:1"
                   d="m -499.40625,225.96875 v -27.6253 l -7.94286,-18.208 v 29.07977 z"
                   id="path56902" />
                <path
                   style="fill:#ffffff;fill-opacity:1;stroke:none;stroke-width:1px;stroke-linecap:butt;stroke-linejoin:miter;stroke-opacity:1"
                   d="m -520.6875,217.25 v -29.07121 l 7.46056,6.31977 v 18.42897 l 11.20747,14.66756 z"
                   id="path56904" />
                <path
                   style="fill:#ffffff;fill-opacity:1;stroke:none;stroke-width:1px;stroke-linecap:butt;stroke-linejoin:miter;stroke-opacity:1"
                   d="m -504.24525,231.73594 -27.36647,0.0625 v -31.37786 h 7.33624 v 21.9645 z"
                   id="path56906" />
              </g>
              <g
                 id="g57426"
                 transform="matrix(-1,0,0,1,-996.018,0)">
                <path
                   style="fill:#ffffff;fill-opacity:1;stroke:none;stroke-width:1px;stroke-linecap:butt;stroke-linejoin:miter;stroke-opacity:1"
                   d="m -499.40625,225.96875 v -27.6253 l -7.94286,-18.208 v 29.07977 z"
                   id="path57420" />
                <path
                   style="fill:#ffffff;fill-opacity:1;stroke:none;stroke-width:1px;stroke-linecap:butt;stroke-linejoin:miter;stroke-opacity:1"
                   d="m -520.6875,217.25 v -29.07121 l 7.46056,6.31977 v 18.42897 l 11.20747,14.66756 z"
                   id="path57422" />
                <path
                   style="fill:#ffffff;fill-opacity:1;stroke:none;stroke-width:1px;stroke-linecap:butt;stroke-linejoin:miter;stroke-opacity:1"
                   d="m -504.24525,231.73594 -27.36647,0.0625 v -31.37786 h 7.33624 v 21.9645 z"
                   id="path57424" />
              </g>
            </g>
            <g
               id="g37157"
               transform="matrix(1.0110779,0,0,1.0110779,452.15847,-35.619681)">
              <g
                 id="g7493">
                <g
                   id="g7084">
                  <path
                     style="fill:#ffffff;fill-opacity:1;stroke:none;stroke-width:1px;stroke-linecap:butt;stroke-linejoin:miter;stroke-opacity:1"
                     d="m -335.12499,185.125 37.125,-8.625 40.125,5.75 -40.375,8.25 z"
                     id="path5992" />
                  <g
                     id="g6969"
                     transform="translate(0.21874999,-0.62500003)">
                    <path
                       style="fill:#ffefef;fill-opacity:1;stroke:#ffffff;stroke-width:1px;stroke-linecap:butt;stroke-linejoin:miter;stroke-opacity:1"
                       d="m -328.27432,186.36682 0.0884,10.96016"
                       id="path6107" />
                    <path
                       id="path6155"
                       style="fill:#ffffff;fill-opacity:1;fill-rule:evenodd;stroke:#ffffff;stroke-width:0.832;stroke-miterlimit:4;stroke-dasharray:none;stroke-opacity:1"
                       d="m -326.52125,197.44485 a 1.7088677,1.7088677 0 0 1 -1.70886,1.70887 1.7088677,1.7088677 0 0 1 -1.70887,-1.70887 1.7088677,1.7088677 0 0 1 1.70887,-1.70886 1.7088677,1.7088677 0 0 1 1.70886,1.70886 z" />
                    <path
                       style="fill:#ffefef;fill-opacity:1;stroke:#ffffff;stroke-width:1.898;stroke-linecap:round;stroke-linejoin:miter;stroke-miterlimit:4;stroke-dasharray:none;stroke-opacity:1"
                       d="m -328.27552,192.12475 0.0908,5.1943 v 0"
                       id="path6501" />
                  </g>
                </g>
                <path
                   style="fill:#ffffff;fill-opacity:1;stroke:none;stroke-width:1px;stroke-linecap:butt;stroke-linejoin:miter;stroke-opacity:1"
                   d="m -316.60705,189.15106 18.51735,2.78423 16.08971,-3.49779 2.51604,11.49694 c -15.28145,2.34672 -28.87697,2.25731 -39.68637,-0.0884 z"
                   id="path7119" />
              </g>
              <g
                 id="g37141"
                 transform="translate(-2.0294418,-35.648734)">
                <path
                   id="path7668"
                   style="fill:#ffffff;fill-opacity:1;stroke:none;stroke-width:1px;stroke-linecap:butt;stroke-linejoin:miter;stroke-opacity:1"
                   d="m -255.59732,227.4227 c -13.28927,7.41871 -23.99001,14.46358 -54.47461,24.37109 -0.20483,1.24524 -0.22385,2.25481 -0.11718,3.10547 l 0.043,0.3457 c 0.49443,2.79329 2.54354,3.61953 4.40624,4.67969 16.68221,-10.62043 35.32847,-18.12042 56.01758,-22.37695 -0.10443,-1.94068 -0.18466,-3.89128 -0.81836,-5.60742 l 0.0527,2.88867 c 0.0172,0.94011 -0.81463,1.12664 -1.4375,0.5 -1.33642,-1.34449 -2.08424,-3.00261 -2.45313,-4.67188 -0.15681,-0.7096 0.11015,-1.01617 0.6875,-0.75 0.76566,0.35298 1.36813,1.10126 1.95313,2.60938 0.96235,2.48097 0.77745,-0.0548 0.85547,-1.36524 v -0.002 c -0.79306,-1.57246 -2.18438,-2.89118 -4.71485,-3.72656 z m 0.0195,0.82031 c 0.12385,0.0114 0.26643,0.0524 0.42774,0.12109 0.30931,0.1317 0.68186,0.38888 1.02539,0.61719 -0.91372,-0.28775 -1.6836,-0.38117 -1.57617,1.10157 l 0.20898,1.85937 c -0.32736,-1.04338 -0.73668,-2.03624 -0.68555,-3.01953 0.0254,-0.48928 0.22805,-0.71403 0.59961,-0.67969 z m -52.9414,25.36719 c 0.54229,-0.01 0.92427,0.22482 1.51953,1.16601 0.76457,1.20886 0.54511,2.36997 0.46484,2.58594 0,0 -0.211,0.877 -1.00586,0.36524 -0.63415,-0.43274 -0.82236,-0.93174 -0.95507,-1.23243 -0.36986,-0.83803 -0.54651,-1.61666 -0.35938,-1.89453 0.21027,-0.31222 0.63819,-0.29521 0.85742,-0.0234 0.15842,0.1964 0.99909,1.35159 0.86914,2.10156 -0.0399,0.23022 -0.39537,0.24615 -0.62109,-0.14844 -0.30678,-0.53629 -0.35913,-1.07724 -0.43555,-1.58984 -0.0458,-0.30733 -0.40811,-0.27305 -0.40625,-0.008 0.004,0.57768 0.19646,1.05435 0.45703,1.57032 0.21535,0.42643 0.48763,0.73954 0.67774,0.85742 0.31853,0.22147 0.57937,0.082 0.65625,-0.19727 0.18657,-0.67777 -0.24117,-1.89029 -0.68164,-2.42578 -0.14607,-0.17759 -0.58615,-1.07439 -1.31055,-0.77344 -0.13911,0.06 -0.31075,0.1587 -0.39453,0.4375 -0.14344,0.47734 -0.0165,0.93078 0.0215,1.39258 -0.14423,-0.45917 -0.40002,-1.05395 -0.24218,-1.61328 0.12916,-0.40519 0.44471,-0.5149 0.64648,-0.55273 0.0851,-0.01 0.16472,-0.0162 0.24219,-0.0176 z" />
                <path
                   id="path31620"
                   style="fill:#71bf44;fill-opacity:1;stroke:#ffffff;stroke-width:2;stroke-linecap:butt;stroke-linejoin:miter;stroke-miterlimit:4;stroke-dasharray:none;stroke-opacity:1"
                   d="m -285.97951,240.49396 c -1.73758,0.27213 -2.74864,1.03434 -3.19532,1.38831 0,0 -2.72069,1.78425 -1.59375,5.51293 1.09951,3.63791 9.70222,-0.50446 12.3418,-3.33224 2.63958,2.07328 11.24229,3.75666 12.3418,-0.19553 1.12694,-4.0508 -1.59375,-5.05737 -1.59375,-5.05737 -0.89336,-0.45258 -4.04458,-1.89411 -10.74805,3.23728 -3.35173,-1.60763 -5.81516,-1.82551 -7.55273,-1.55338 z" />
                <path
                   id="path33701"
                   style="fill:#ffffff;fill-opacity:1;stroke:none;stroke-width:1px;stroke-linecap:butt;stroke-linejoin:miter;stroke-opacity:1"
                   d="m -278.42678,242.74263 -2.28906,2.89063 c -2.42718,5.79434 -5.39032,10.83656 -8.39649,15.82031 1.14905,0.53249 2.29822,0.58806 3.44727,0.17774 3.08119,-5.45478 5.3308,-11.40935 7.23828,-17.56835 1.90748,6.159 4.15709,12.11357 7.23828,17.56835 1.14905,0.41032 2.29822,0.35475 3.44727,-0.17774 -3.00617,-4.98374 -5.96931,-10.02597 -8.39649,-15.82031 z" />
                <path
                   style="fill:#ffffff;fill-opacity:1;stroke:none;stroke-width:1px;stroke-linecap:butt;stroke-linejoin:miter;stroke-opacity:1"
                   d="m -289.93588,244.61475 7.30309,-3.0494 -3.66812,-0.7292 -3.74545,2.48592 z"
                   id="path36797" />
                <path
                   style="fill:#ffffff;fill-opacity:1;stroke:none;stroke-width:1px;stroke-linecap:butt;stroke-linejoin:miter;stroke-opacity:1"
                   d="m -274.85462,244.6258 8.09859,-2.72899 0.37565,2.06608 -2.67375,1.72357 -5.88887,-0.56348 z"
                   id="path36898" />
              </g>
            </g>
          </g>
        </g>
      </g>
    </g>
  </g>
</svg>
